<?xml version="1.0" encoding="UTF-8" standalone="no"?>
<!-- Created with Inkscape (http://www.inkscape.org/) -->

<svg
   version="1.1"
   id="svg2"
   xml:space="preserve"
   width="497.18668"
   height="195.85333"
   viewBox="0 0 497.18668 195.85333"
   xmlns="http://www.w3.org/2000/svg"
   xmlns:svg="http://www.w3.org/2000/svg"><defs
     id="defs6" /><g
     id="g8"
     transform="matrix(1.3333333,0,0,-1.3333333,0,195.85333)"><g
       id="g10"
       transform="scale(0.1)"><path
         d="m 2514.2,1468.88 h -244.6 l -94.73,-258.33 h 244.6 l 94.73,258.33"
         style="fill:#59c477;fill-opacity:1;fill-rule:nonzero;stroke:none"
         id="path12" /><path
         d="m 328.84,540.992 c -57.082,0 -100.574,28.567 -100.574,77.453 0,67.914 65.218,93.735 148.113,93.735 36.703,0 72.008,-2.7 103.269,-4.094 0,-82.848 -58.425,-167.094 -150.808,-167.094 z m 379.074,283.946 c 0,215.982 -156.254,293.432 -336.98,293.432 -104.618,0 -195.653,-14.93 -282.6449,-50.24 l 4.0937,-165.739 c 67.9652,38.004 146.7652,52.984 225.5662,52.984 88.34,0 160.352,-25.82 161.699,-122.297 -31.261,5.442 -74.757,9.539 -114.156,9.539 C 235.055,842.617 0,816.797 0,600.816 0,447.309 124.992,378 264.969,378 c 100.523,0 168.488,39.398 224.168,127.738 h 2.746 c 0,-36.707 4.047,-73.41 5.441,-111.457 h 224.172 c -10.836,55.731 -13.582,111.457 -13.582,167.086 v 263.571"
         style="fill:#231f20;fill-opacity:1;fill-rule:nonzero;stroke:none"
         id="path14" /><path
         d="M 848.438,394.281 H 1093.02 V 1413.15 H 848.438 V 394.281"
         style="fill:#231f20;fill-opacity:1;fill-rule:nonzero;stroke:none"
         id="path16" /><path
         d="m 1707.91,394.281 262.27,707.759 H 1726.94 L 1578.82,598.07 h -2.7 l -146.76,503.97 h -262.27 l 262.27,-707.759 h 278.55"
         style="fill:#231f20;fill-opacity:1;fill-rule:nonzero;stroke:none"
         id="path18" /><path
         d="M 2135.12,1102.04 1881.44,394.281 h 244.6 l 253.68,707.759 h -244.6"
         style="fill:#231f20;fill-opacity:1;fill-rule:nonzero;stroke:none"
         id="path20" /><path
         d="m 2771.73,963.465 c 97.82,0 135.87,-66.567 135.87,-148.067 h -271.75 c 5.44,81.5 47.54,148.067 135.88,148.067 z m 290.78,-368.141 c -73.36,-39.398 -149.46,-54.332 -216.03,-54.332 -119.6,0 -194.3,38.055 -207.94,135.832 h 489.19 v 44.844 c 0,210.586 -95.13,396.652 -357.35,396.652 -220.13,0 -379.13,-135.832 -379.13,-369.488 0,-233.656 178.03,-370.883 411.74,-370.883 90.98,0 180.72,13.629 259.52,44.84 v 172.535"
         style="fill:#231f20;fill-opacity:1;fill-rule:nonzero;stroke:none"
         id="path22" /><path
         d="m 3645.98,1118.32 c -105.97,0 -167.14,-57.03 -209.24,-146.718 h -2.75 V 1102.04 H 3211.17 V 394.281 h 244.6 v 298.871 c 0,138.528 63.82,221.422 177.97,221.422 28.52,0 55.68,0 82.9,-8.14 l 12.24,203.746 c -24.47,4.09 -54.34,8.14 -82.9,8.14"
         style="fill:#231f20;fill-opacity:1;fill-rule:nonzero;stroke:none"
         id="path24" /><path
         d="m 328.844,100.34 c -2.871,-10.7814 -9.582,-39.0314 -9.582,-39.0314 h -0.473 c 0,0 -6.715,28.25 -9.824,39.0314 l -20.832,74.969 H 231.129 V 4.05859 h 38.074 V 90.0508 c 0,6.9375 -0.715,34.4802 -0.715,34.4802 h 0.481 c 0,0 5.988,-25.8591 7.91,-32.0896 L 301.301,4.05859 h 34.969 l 24.668,88.62111 c 1.917,6.2305 7.91,31.8513 7.91,31.8513 h 0.468 c 0,0 -0.714,-27.2927 -0.714,-34.2497 V 4.05859 h 38.8 V 175.309 H 349.918 L 328.844,100.34"
         style="fill:#231f20;fill-opacity:1;fill-rule:nonzero;stroke:none"
         id="path26" /><path
         d="m 599.883,76.6406 h 74.969 v 33.0504 h -74.969 v 30.649 h 87.418 v 34.969 H 557.492 V 4.05859 H 688.738 V 39.9883 h -88.855 v 36.6523"
         style="fill:#231f20;fill-opacity:1;fill-rule:nonzero;stroke:none"
         id="path28" /><path
         d="m 907.266,34.9609 c -25.379,0 -41.188,22.7383 -41.188,54.1289 0,31.1292 13.176,54.3592 40.953,54.3592 18.207,0 30.176,-11.738 32.332,-27.07 h 42.391 c -2.152,19.172 -10.777,35.941 -25.625,47.191 -12.215,9.352 -28.981,15.078 -48.863,15.078 -51.004,0 -84.305,-38.546 -84.305,-89.5582 0,-51.25 34.25,-88.859331 84.551,-88.859331 24.183,0 41.668,6.710941 54.843,19.410131 11.735,11.2383 19.399,26.8203 20.594,43.8203 h -42.383 c -1.918,-16.5312 -14.378,-28.5 -33.3,-28.5"
         style="fill:#231f20;fill-opacity:1;fill-rule:nonzero;stroke:none"
         id="path30" /><path
         d="m 1226.46,110.398 h -60.12 v 64.911 h -42.4 V 4.05859 h 42.4 V 75.4414 h 60.12 V 4.05859 h 42.39 V 175.309 h -42.39 v -64.911"
         style="fill:#231f20;fill-opacity:1;fill-rule:nonzero;stroke:none"
         id="path32" /><path
         d="m 1466.48,65.3789 13.17,41.4301 c 2.88,8.863 6.96,24.191 6.96,24.191 h 0.47 c 0,0 3.83,-15.328 6.71,-24.191 l 12.92,-41.4301 z M 1465.77,175.309 1404.21,4.05859 h 42.64 l 9.82,30.90231 h 59.86 l 10.06,-30.90231 h 44.56 l -61.8,171.25041 h -43.58"
         style="fill:#231f20;fill-opacity:1;fill-rule:nonzero;stroke:none"
         id="path34" /><path
         d="m 1679.02,139.379 h 49.82 V 4.05859 h 42.39 V 139.379 h 50.29 v 35.93 h -142.5 v -35.93"
         style="fill:#231f20;fill-opacity:1;fill-rule:nonzero;stroke:none"
         id="path36" /><path
         d="m 2033.15,99.6211 h -31.84 V 141.77 h 32.8 c 16.29,0 24.43,-8.86 24.43,-21.309 0,-12.941 -8.61,-20.8399 -25.39,-20.8399 z m 62.76,-47.1797 c -2.4,17 -10.06,26.3477 -24.92,31.3867 v 0.711 c 19.88,6.9414 29.7,21.5509 29.7,41.4299 0,31.851 -25.86,49.34 -59.86,49.34 h -81.91 V 4.05859 h 42.39 V 68.25 h 25.62 c 18.2,0 26.35,-8.6289 28.51,-24.4297 2.63,-17 1.92,-37.12108 6.47,-39.76171 h 41.19 v 2.17188 c -6,2.14062 -3.59,23.69143 -7.19,46.21093"
         style="fill:#231f20;fill-opacity:1;fill-rule:nonzero;stroke:none"
         id="path38" /><path
         d="m 2316.65,34.4805 c -27.56,0 -41.68,23.7109 -41.68,54.8398 0,31.1407 14.12,55.0897 41.68,55.0897 27.78,0 41.43,-23.949 41.43,-55.0897 0,-31.1289 -13.65,-54.8398 -41.43,-54.8398 z m -0.25,144.1675 c -51.72,0 -84.54,-38.058 -84.54,-89.3277 0,-51.25 32.82,-89.3203 84.54,-89.3203 51.99,0 84.79,38.0703 84.79,89.3203 0,51.2697 -32.8,89.3277 -84.79,89.3277"
         style="fill:#231f20;fill-opacity:1;fill-rule:nonzero;stroke:none"
         id="path40" /><path
         d="m 2643.98,94.1094 c 0,-5.9805 0.49,-26.5703 0.49,-26.5703 h -0.49 c 0,0 -9.1,17 -11.74,21.7812 l -50.78,85.9887 h -42.62 V 4.05859 h 41.44 V 83.8281 c 0,5.9805 -0.49,27.9999 -0.49,27.9999 h 0.49 c 0,0 9.33,-18.4296 12.2,-22.9764 l 50.3,-84.79301 h 42.63 V 175.309 h -41.43 V 94.1094"
         style="fill:#231f20;fill-opacity:1;fill-rule:nonzero;stroke:none"
         id="path42" /><path
         d="m 2835.4,4.05859 h 42.39 V 175.309 H 2835.4 V 4.05859"
         style="fill:#231f20;fill-opacity:1;fill-rule:nonzero;stroke:none"
         id="path44" /><path
         d="m 3104.19,34.9609 c -25.39,0 -41.19,22.7383 -41.19,54.1289 0,31.1292 13.17,54.3592 40.95,54.3592 18.2,0 30.18,-11.738 32.33,-27.07 h 42.39 c -2.15,19.172 -10.78,35.941 -25.62,47.191 -12.22,9.352 -28.98,15.078 -48.86,15.078 -51.01,0 -84.31,-38.546 -84.31,-89.5582 0,-51.25 34.24,-88.859331 84.55,-88.859331 24.19,0 41.66,6.710941 54.85,19.410131 11.73,11.2383 19.39,26.8203 20.59,43.8203 h -42.39 c -1.92,-16.5312 -14.37,-28.5 -33.29,-28.5"
         style="fill:#231f20;fill-opacity:1;fill-rule:nonzero;stroke:none"
         id="path46" /><path
         d="m 3398.83,109.691 c -25.64,5.731 -38.8,8.61 -38.8,20.59 0,9.571 9.81,16.039 24.67,16.039 15.8,0 25.86,-7.429 27.54,-20.59 h 41.43 c -1.68,35.918 -30.41,52.7 -67.54,52.7 -38.33,0 -68.03,-16.059 -68.03,-52.7 0,-35.9214 31.39,-45.0308 61.09,-51.9683 23.47,-5.75 37.35,-8.6328 37.35,-22.2812 0,-12.9219 -13.65,-17.961 -27.53,-17.961 -20.37,0 -31.62,7.1797 -33.54,24.4297 h -42.63 C 3313.8,20.1094 3343.74,0 3389.25,0 c 39.52,0 70.17,19.8594 70.17,55.8008 0,36.6406 -28.74,46.4612 -60.59,53.8902"
         style="fill:#231f20;fill-opacity:1;fill-rule:nonzero;stroke:none"
         id="path48" /></g></g></svg>
